<?xml version="1.0" encoding="UTF-8"?>
<svg id="Layer_2" data-name="Layer 2" xmlns="http://www.w3.org/2000/svg" viewBox="0 0 131.01 92.95">
  <defs>
    <style>
      .cls-1 {
        fill: #D9E2C3;
      }

      .cls-2 {
        stroke: #D9E2C3;
      }

      .cls-2, .cls-3 {
        fill: none;
        stroke-miterlimit: 100;
      }

      .cls-3 {
        stroke: #74946F;
      }

      .cls-4 {
        fill: #74946F;
      }
    </style>
  </defs>
  <g id="Layer_1-2" data-name="Layer 1">
    <g id="Shape_4" data-name="Shape 4">
      <path class="cls-1" d="M66.5,70.66c-.9.1-2.17,4.34-2.4,4.8-1.89,3.74-4.5,6.24-6,7.2-2.08,1.33-4.84,2.29-8.4,2.4-1.58.05-4.38-.31-7.2-1.2-2.18-.69-3.91-1.62-6-2.4-1.18-.44-2.37-.84-3.6-1.2,4.95-2.01,9.13-5.27,12-9.6,1.34-2.02,2.64-4.86,3.6-8.4.83-3.07,1-5.44,1.2-8.4.26-3.77.88-7.03,1.2-10.8.06-.76.88-5.95,2.4-9.6,1.19-2.86,2.82-5.4,3.6-6,1.1-.85,2.36-1.39,2.4-2.4.04-1.03-1.23-2.04-2.4-2.4-1.03-.32-1.89-.13-2.4,0-2.02.54-3.42,1.58-4.8,2.4-.76.45-1.56.85-2.4,1.2-2.22,1.3-4.24,2.91-6,4.8-1.77,1.9-3.38,4.21-4.8,7.2-2.79,5.86-3.96,12.85-3.6,19.2.12,2.2.28,4.57,0,7.2-.17,1.61-1.13,5.22-2.4,8.4-1.11,2.77-2.04,4.27-3.6,4.8-1.89.65-3.38-.58-6-1.2-1-.24-3.62-.18-6,0-6.03.45-10.51,2.14-12,3.6-1.93,1.9-2.42,3.54-2.4,4.8.06,3.39,3.48,5.39,4.8,6,1.08.5,4.51,1.05,8.4,0,1.62-.44,3.83-1.36,6-2.4.81-.39,1.6-.78,2.4-1.2,2,.83,3.97,1.62,6,2.4,3.12,1.21,5.41,1.99,8.4,2.4,1.9.26,5.23.24,8.4,0,2.03-.15,5.46-.72,8.4-1.2,1.72-.28,3.38-.77,4.8-1.2,1.75-.53,6.07-2.44,9.6-4.8.9-.6,1.76-1.24,2.4-2.4,2.54-4.61-1.57-12.23-3.6-12Z"/>
      <path class="cls-2" d="M66.5,70.66c-.9.1-2.17,4.34-2.4,4.8-1.89,3.74-4.5,6.24-6,7.2-2.08,1.33-4.84,2.29-8.4,2.4-1.58.05-4.38-.31-7.2-1.2-2.18-.69-3.91-1.62-6-2.4-1.18-.44-2.37-.84-3.6-1.2,4.95-2.01,9.13-5.27,12-9.6,1.34-2.02,2.64-4.86,3.6-8.4.83-3.07,1-5.44,1.2-8.4.26-3.77.88-7.03,1.2-10.8.06-.76.88-5.95,2.4-9.6,1.19-2.86,2.82-5.4,3.6-6,1.1-.85,2.36-1.39,2.4-2.4.04-1.03-1.23-2.04-2.4-2.4-1.03-.32-1.89-.13-2.4,0-2.02.54-3.42,1.58-4.8,2.4-.76.45-1.56.85-2.4,1.2-2.22,1.3-4.24,2.91-6,4.8-1.77,1.9-3.38,4.21-4.8,7.2-2.79,5.86-3.96,12.85-3.6,19.2.12,2.2.28,4.57,0,7.2-.17,1.61-1.13,5.22-2.4,8.4-1.11,2.77-2.04,4.27-3.6,4.8-1.89.65-3.38-.58-6-1.2-1-.24-3.62-.18-6,0-6.03.45-10.51,2.14-12,3.6-1.93,1.9-2.42,3.54-2.4,4.8.06,3.39,3.48,5.39,4.8,6,1.08.5,4.51,1.05,8.4,0,1.62-.44,3.83-1.36,6-2.4.81-.39,1.6-.78,2.4-1.2,2,.83,3.97,1.62,6,2.4,3.12,1.21,5.41,1.99,8.4,2.4,1.9.26,5.23.24,8.4,0,2.03-.15,5.46-.72,8.4-1.2,1.72-.28,3.38-.77,4.8-1.2,1.75-.53,6.07-2.44,9.6-4.8.9-.6,1.76-1.24,2.4-2.4,2.54-4.61-1.57-12.23-3.6-12Z"/>
    </g>
    <g id="Shape_3" data-name="Shape 3">
      <path class="cls-4" d="M130.1,9.46c-.36-3.65-1.05-7.05-3.6-8.4-3.54-1.87-8.37,1.46-9.6,2.4-2.32,1.77-3.39,3.77-3.6,4.8-.61,3,1.4,5.6,2.4,7.2,1.31,2.08,2.47,9.75,2.4,18-.04,4.88-.78,10.48-2.4,16.8-1.9,7.41-5.17,15.36-10.8,22.8-3.77,4.98-7.54,7.98-12,8.4-2.77.26-4.68-.28-6-1.2-2.85-1.99-3.56-5.88-3.6-10.8-.05-5.2.75-11.54,1.2-13.2,1.86-6.78,3.46-14.09,3.6-18,.34-9.64-2.1-16.12-4.8-20.4-2.44-3.86-5.73-7.18-9.6-9.6-2.44-1.53-9.27-4.11-16.8-4.8-2.94-.27-6.86-.24-10.8,0-5.71.34-11.47,1.37-14.4,2.4-3.08,1.08-6.25,2.63-9.6,4.8-4.35,2.81-7.89,6.17-9.6,8.4-2.42,3.16-3.96,6.36-4.8,9.6-1.11,4.31-.63,7.92,0,9.6.74,1.98,2.02,3.65,3.6,4.8.9.65,1.75,1.03,2.4,1.2,2.27.59,4.54-.28,6-1.2,1.3-.82,2.15-1.88,2.4-2.4.8-1.69.28-3.31,0-4.8-.37-1.96-.36-4.03,0-6,.39-2.13,1.21-4.18,2.4-6,1.14-1.74,2.56-3.15,4.8-4.8,2.6-1.91,5.38-3.48,8.4-4.8,2.67-1.17,5.55-2.11,7.2-2.4,3.19-.55,5.97-.47,8.4,0,2.62.51,5.97,1.87,9.6,4.8,1.53,1.24,2.82,2.55,3.6,3.6,1.6,2.15,2.94,5.16,3.6,9.6.63,4.21.5,8.14,0,10.8-.77,4.06-1.79,8.99-2.4,12-.91,4.52-1.31,8.74-1.2,12,.17,5.06,1.23,9.33,2.4,12,1.53,3.5,4.1,7.29,8.4,10.8,2.81,2.29,5.31,3.34,7.2,3.6,1.49.2,4.21-.12,7.2-1.2,2.83-1.02,5.14-2.24,7.2-3.6,2.35-1.55,4.12-3.06,6-4.8,2.68-2.49,5.89-5.62,7.2-7.2,2.76-3.32,5.72-8.47,8.4-14.4,2.5-5.52,4.64-10.99,6-15.6,1.18-3.99,2.49-11.52,3.6-18,.44-2.55.65-10.3,0-16.8Z"/>
      <path class="cls-3" d="M130.1,9.46c-.36-3.65-1.05-7.05-3.6-8.4-3.54-1.87-8.37,1.46-9.6,2.4-2.32,1.77-3.39,3.77-3.6,4.8-.61,3,1.4,5.6,2.4,7.2,1.31,2.08,2.47,9.75,2.4,18-.04,4.88-.78,10.48-2.4,16.8-1.9,7.41-5.17,15.36-10.8,22.8-3.77,4.98-7.54,7.98-12,8.4-2.77.26-4.68-.28-6-1.2-2.85-1.99-3.56-5.88-3.6-10.8-.05-5.2.75-11.54,1.2-13.2,1.86-6.78,3.46-14.09,3.6-18,.34-9.64-2.1-16.12-4.8-20.4-2.44-3.86-5.73-7.18-9.6-9.6-2.44-1.53-9.27-4.11-16.8-4.8-2.94-.27-6.86-.24-10.8,0-5.71.34-11.47,1.37-14.4,2.4-3.08,1.08-6.25,2.63-9.6,4.8-4.35,2.81-7.89,6.17-9.6,8.4-2.42,3.16-3.96,6.36-4.8,9.6-1.11,4.31-.63,7.92,0,9.6.74,1.98,2.02,3.65,3.6,4.8.9.65,1.75,1.03,2.4,1.2,2.27.59,4.54-.28,6-1.2,1.3-.82,2.15-1.88,2.4-2.4.8-1.69.28-3.31,0-4.8-.37-1.96-.36-4.03,0-6,.39-2.13,1.21-4.18,2.4-6,1.14-1.74,2.56-3.15,4.8-4.8,2.6-1.91,5.38-3.48,8.4-4.8,2.67-1.17,5.55-2.11,7.2-2.4,3.19-.55,5.97-.47,8.4,0,2.62.51,5.97,1.87,9.6,4.8,1.53,1.24,2.82,2.55,3.6,3.6,1.6,2.15,2.94,5.16,3.6,9.6.63,4.21.5,8.14,0,10.8-.77,4.06-1.79,8.99-2.4,12-.91,4.52-1.31,8.74-1.2,12,.17,5.06,1.23,9.33,2.4,12,1.53,3.5,4.1,7.29,8.4,10.8,2.81,2.29,5.31,3.34,7.2,3.6,1.49.2,4.21-.12,7.2-1.2,2.83-1.02,5.14-2.24,7.2-3.6,2.35-1.55,4.12-3.06,6-4.8,2.68-2.49,5.89-5.62,7.2-7.2,2.76-3.32,5.72-8.47,8.4-14.4,2.5-5.52,4.64-10.99,6-15.6,1.18-3.99,2.49-11.52,3.6-18,.44-2.55.65-10.3,0-16.8Z"/>
    </g>
  </g>
</svg>